<?xml version="1.0" standalone="no"?>
<!-- Generator: Adobe Fireworks 10, Export SVG Extension by Aaron Beall (http://fireworks.abeall.com) . Version: 0.6.1  -->
<!DOCTYPE svg PUBLIC "-//W3C//DTD SVG 1.1//EN" "http://www.w3.org/Graphics/SVG/1.1/DTD/svg11.dtd">
<svg id="Untitled-Page%201" viewBox="0 0 20 17" style="background-color:#ffffff00" version="1.1"
	xmlns="http://www.w3.org/2000/svg" xmlns:xlink="http://www.w3.org/1999/xlink" xml:space="preserve"
	x="0px" y="0px" width="20px" height="17px"
>
	<g id="Layer%201">
		<g>
			<g>
				<path d="M 0.0017 8.5024 C 0.0262 8.9092 0.2996 9.2512 0.6951 9.3677 L 8.0217 11.5535 L 8.2908 16.5369 C 8.3032 16.7344 8.4376 16.9075 8.6294 16.9717 C 8.6824 16.9919 8.7396 17 8.7926 17 C 8.9353 17 9.0701 16.9436 9.1678 16.835 L 11.7582 14.0049 L 15.4296 16.5127 C 15.5927 16.6255 15.7845 16.6858 15.9843 16.6858 C 16.4454 16.6858 16.8452 16.364 16.943 15.9131 L 19.9904 0.5886 C 20.027 0.4111 19.9576 0.2261 19.819 0.1135 C 19.6761 -0.0034 19.4844 -0.0315 19.3131 0.0366 L 0.5892 7.5564 C 0.2097 7.7253 -0.0227 8.0959 0.0017 8.5024 L 0.0017 8.5024 ZM 9.2209 15.3013 L 9.0537 12.1575 L 10.9302 13.4375 L 9.2209 15.3013 ZM 15.9681 15.6836 L 9.2861 11.1187 L 18.6564 2.1746 L 15.9681 15.6836 ZM 17.6284 1.7798 L 8.3643 10.6235 L 1.0461 8.4419 L 17.6284 1.7798 ZM 17.6284 1.7798 L 17.6284 1.7798 Z" fill="#d34c39"/>
			</g>
		</g>
	</g>
</svg>