<?xml version="1.0" standalone="no"?>
<!-- Generator: Adobe Fireworks 10, Export SVG Extension by Aaron Beall (http://fireworks.abeall.com) . Version: 0.6.1  -->
<!DOCTYPE svg PUBLIC "-//W3C//DTD SVG 1.1//EN" "http://www.w3.org/Graphics/SVG/1.1/DTD/svg11.dtd">
<svg id="Untitled-Page%201" viewBox="0 0 17 20" style="background-color:#ffffff00" version="1.1"
	xmlns="http://www.w3.org/2000/svg" xmlns:xlink="http://www.w3.org/1999/xlink" xml:space="preserve"
	x="0px" y="0px" width="17px" height="20px"
>
	<g id="Layer%201">
		<path d="M 16.7413 0.6616 C 16.5677 0.4143 16.3353 0.2336 16.0441 0.1189 C 15.8578 0.0396 15.6628 0 15.459 0 L 1.5403 0 C 1.3372 0 1.1421 0.0396 0.9558 0.1189 C 0.6638 0.2336 0.4314 0.4143 0.2588 0.6608 C 0.0868 0.908 0 1.1812 0 1.4807 L 0 18.5193 C 0 18.8188 0.0868 19.0923 0.2588 19.3394 C 0.4314 19.5857 0.6638 19.7664 0.9558 19.8811 C 1.1421 19.9604 1.3372 20 1.5403 20 C 1.9565 20 2.3242 19.8542 2.6426 19.5635 L 8.5 13.9587 L 14.3567 19.5635 C 14.667 19.8455 15.0339 19.9866 15.459 19.9866 C 15.6803 19.9866 15.8752 19.9517 16.0441 19.8811 C 16.3353 19.7664 16.5677 19.5857 16.7413 19.3385 C 16.9132 19.0923 17 18.8188 17 18.5193 L 17 1.4807 C 17 1.1812 16.9132 0.908 16.7413 0.6616 L 16.7413 0.6616 ZM 15.2998 18.109 L 9.682 12.7427 L 8.5 11.6194 L 7.318 12.7427 L 1.7002 18.109 L 1.7002 1.6923 L 15.2998 1.6923 L 15.2998 18.109 ZM 15.2998 18.109 L 15.2998 18.109 Z" fill="#bbbbbb"/>
	</g>
</svg>