<?xml version="1.0" standalone="no"?>
<!-- Generator: Adobe Fireworks 10, Export SVG Extension by Aaron Beall (http://fireworks.abeall.com) . Version: 0.6.1  -->
<!DOCTYPE svg PUBLIC "-//W3C//DTD SVG 1.1//EN" "http://www.w3.org/Graphics/SVG/1.1/DTD/svg11.dtd">
<svg id="Untitled-Page%201" viewBox="0 0 16 20" style="background-color:#ffffff00" version="1.1"
	xmlns="http://www.w3.org/2000/svg" xmlns:xlink="http://www.w3.org/1999/xlink" xml:space="preserve"
	x="0px" y="0px" width="16px" height="20px"
>
	<g id="Layer%201">
		<g>
			<path d="M 16 16.25 C 16 18.8269 11.8529 20 8.0001 20 C 4.1471 20 0 18.8269 0 16.25 C 0 14.1185 2.8385 12.9504 6 12.6086 L 6 13.877 C 3.3014 14.1968 1.3334 15.1317 1.3334 16.25 C 1.3334 17.6306 4.317 18.75 8.0001 18.75 C 11.6824 18.75 14.6667 17.6306 14.6667 16.25 C 14.6667 15.1317 12.698 14.1968 10 13.877 L 10 12.6086 C 13.1615 12.9504 16 14.1187 16 16.25 L 16 16.25 ZM 8.0001 0 C 5.4232 0 3.3334 1.9592 3.3334 4.375 C 3.3334 6.5771 5.0748 8.3813 7.3334 8.6864 L 7.3334 16.25 L 8.6666 16.25 L 8.6666 8.6864 C 10.9244 8.3812 12.6666 6.5771 12.6666 4.375 C 12.6666 1.9592 10.5768 0 8.0001 0 L 8.0001 0 ZM 6.6666 3.75 C 5.9296 3.75 5.3333 3.1909 5.3333 2.5 C 5.3333 1.8091 5.9298 1.25 6.6666 1.25 C 7.4036 1.25 8.0001 1.8091 8.0001 2.5 C 8.0001 3.1909 7.4037 3.75 6.6666 3.75 L 6.6666 3.75 ZM 6.6666 3.75 L 6.6666 3.75 Z" fill="#bbbbbb"/>
		</g>
	</g>
</svg>