<?xml version="1.0" standalone="no"?>
<!-- Generator: Adobe Fireworks 10, Export SVG Extension by Aaron Beall (http://fireworks.abeall.com) . Version: 0.6.1  -->
<!DOCTYPE svg PUBLIC "-//W3C//DTD SVG 1.1//EN" "http://www.w3.org/Graphics/SVG/1.1/DTD/svg11.dtd">
<svg id="Untitled-Page%201" viewBox="0 0 18 15" style="background-color:#ffffff00" version="1.1"
	xmlns="http://www.w3.org/2000/svg" xmlns:xlink="http://www.w3.org/1999/xlink" xml:space="preserve"
	x="0px" y="0px" width="18px" height="15px"
>
	<g id="Layer%201">
		<g>
			<path d="M 17.6909 0 L 0.3105 0 C 0.1392 0 0 0.1462 0 0.3264 L 0 14.6736 C 0 14.8531 0.1392 15 0.3105 15 L 17.6909 15 C 17.8621 15 18 14.8531 18 14.6736 L 18 0.3264 C 18 0.1462 17.8621 0 17.6909 0 L 17.6909 0 ZM 17.3801 14.3472 L 0.6215 14.3472 L 0.6215 0.6528 L 17.3801 0.6528 L 17.3801 14.3472 ZM 17.3801 14.3472 L 17.3801 14.3472 Z" fill="#4d7aff"/>
			<path d="M 4.9659 7.219 C 5.9192 7.219 6.6935 6.4038 6.6935 5.4039 C 6.6935 4.4008 5.9192 3.5872 4.9659 3.5872 C 4.0127 3.5872 3.2368 4.4008 3.2368 5.4023 C 3.2368 6.4038 4.0127 7.219 4.9659 7.219 L 4.9659 7.219 ZM 4.9659 4.2383 C 5.5767 4.2383 6.0735 4.7607 6.0735 5.4023 C 6.0735 6.0438 5.5767 6.566 4.9659 6.566 C 4.3555 6.566 3.858 6.0438 3.858 5.4039 C 3.858 4.7622 4.3555 4.2383 4.9659 4.2383 L 4.9659 4.2383 ZM 4.9659 4.2383 L 4.9659 4.2383 Z" fill="#4d7aff"/>
			<path d="M 2.1732 13.0432 C 2.2458 13.0432 2.3187 13.0162 2.3777 12.962 L 7.4408 8.2794 L 10.6382 11.6374 C 10.7594 11.7643 10.9548 11.7643 11.0762 11.6374 C 11.1973 11.5096 11.1973 11.3041 11.0762 11.1772 L 9.585 9.6088 L 12.4338 6.3303 L 15.9285 9.6965 C 16.0558 9.8191 16.2512 9.809 16.3679 9.6773 C 16.483 9.5436 16.474 9.3381 16.3481 9.2152 L 12.6233 5.6284 C 12.5627 5.571 12.4824 5.5424 12.4005 5.544 C 12.3187 5.547 12.24 5.5851 12.1853 5.6489 L 9.1455 9.1467 L 7.6724 7.6012 C 7.5571 7.4786 7.3708 7.4737 7.2483 7.5868 L 1.9668 12.4715 C 1.8379 12.591 1.826 12.7976 1.9397 12.9329 C 2.0001 13.0066 2.0867 13.0432 2.1732 13.0432 L 2.1732 13.0432 ZM 2.1732 13.0432 L 2.1732 13.0432 Z" fill="#4d7aff"/>
		</g>
	</g>
</svg>