<?xml version="1.0" standalone="no"?>
<!-- Generator: Adobe Fireworks 10, Export SVG Extension by Aaron Beall (http://fireworks.abeall.com) . Version: 0.6.1  -->
<!DOCTYPE svg PUBLIC "-//W3C//DTD SVG 1.1//EN" "http://www.w3.org/Graphics/SVG/1.1/DTD/svg11.dtd">
<svg id="Untitled-Page%201" viewBox="0 0 30 30" style="background-color:#ffffff00" version="1.1"
	xmlns="http://www.w3.org/2000/svg" xmlns:xlink="http://www.w3.org/1999/xlink" xml:space="preserve"
	x="0px" y="0px" width="30px" height="30px"
>
	<g id="Layer%201">
		<path d="M 0 13.9596 C 0 18.4451 1.9606 22.4717 5.0674 25.2257 C 5.7339 25.8172 6.4492 26.3508 7.2132 26.818 C 9.4817 28.2029 12.1468 29 14.9995 29 C 17.85 29 20.5179 28.2029 22.7866 26.818 C 23.551 26.3508 24.2661 25.8172 24.9321 25.2257 C 28.0371 22.4717 30 18.4451 30 13.9596 L 0 13.9596 ZM 0 13.9596 L 0 13.9596 Z" fill="#bbbbbb"/>
		<path d="M 7.6167 1.2563 C 6.2103 2.3134 5.6667 3.7298 6.3538 5.4087 C 6.7351 6.3425 8.7309 8.5838 7.8767 9.5201 C 6.7351 10.774 8.592 12.6471 9.7419 11.3874 C 10.881 10.1394 10.9767 8.6592 10.2722 7.1496 C 9.9298 6.4173 8.0521 4.2092 8.947 3.5391 C 10.2898 2.5299 8.9809 0.2346 7.6167 1.2563 L 7.6167 1.2563 ZM 7.6167 1.2563 L 7.6167 1.2563 Z" fill="#bbbbbb"/>
		<path d="M 13.9403 1.2563 C 12.5301 2.3134 11.9902 3.7298 12.6746 5.4087 C 13.0552 6.3425 15.0536 8.5838 14.1998 9.5201 C 13.0552 10.774 14.913 12.6471 16.0625 11.3874 C 17.2018 10.1394 17.2971 8.6592 16.5948 7.1496 C 16.2502 6.4173 14.3724 4.2092 15.2701 3.5391 C 16.6132 2.5299 15.3012 0.2346 13.9403 1.2563 L 13.9403 1.2563 ZM 13.9403 1.2563 L 13.9403 1.2563 Z" fill="#bbbbbb"/>
		<path d="M 20.2606 1.2563 C 18.8535 2.3134 18.3105 3.7298 18.9977 5.4087 C 19.3781 6.3425 21.3771 8.5838 20.5229 9.5201 C 19.3781 10.774 21.2357 12.6471 22.3856 11.3874 C 23.5254 10.1394 23.6201 8.6592 22.9156 7.1496 C 22.5732 6.4173 20.6955 4.2092 21.5909 3.5391 C 22.9335 2.5299 21.6238 0.2346 20.2606 1.2563 L 20.2606 1.2563 ZM 20.2606 1.2563 L 20.2606 1.2563 Z" fill="#bbbbbb"/>
	</g>
</svg>