<?xml version="1.0" standalone="no"?>
<!-- Generator: Adobe Fireworks 10, Export SVG Extension by Aaron Beall (http://fireworks.abeall.com) . Version: 0.6.1  -->
<!DOCTYPE svg PUBLIC "-//W3C//DTD SVG 1.1//EN" "http://www.w3.org/Graphics/SVG/1.1/DTD/svg11.dtd">
<svg id="Untitled-Page%201" viewBox="0 0 15 14" style="background-color:#ffffff00" version="1.1"
	xmlns="http://www.w3.org/2000/svg" xmlns:xlink="http://www.w3.org/1999/xlink" xml:space="preserve"
	x="0px" y="0px" width="15px" height="14px"
>
	<g id="Layer%201">
		<path d="M 7.4551 2.4727 C 8.0615 1.0178 9.4443 0 11.0527 0 C 13.2192 0 14.7792 1.8811 14.9755 4.1223 C 14.9755 4.1223 15.0824 4.678 14.8495 5.6797 C 14.5316 7.0439 13.786 8.2563 12.7797 9.1807 L 7.4551 14 L 2.2212 9.1807 C 1.2147 8.2563 0.4692 7.0439 0.1512 5.6797 C -0.0815 4.678 0.0237 4.1223 0.0237 4.1223 C 0.2202 1.8796 1.7817 0 3.9481 0 C 5.5564 0 6.8502 1.0178 7.4551 2.4727 L 7.4551 2.4727 ZM 7.4551 2.4727 L 7.4551 2.4727 Z" fill="#d75a4a"/>
	</g>
</svg>