<?xml version="1.0" standalone="no"?>
<!-- Generator: Adobe Fireworks 10, Export SVG Extension by Aaron Beall (http://fireworks.abeall.com) . Version: 0.6.1  -->
<!DOCTYPE svg PUBLIC "-//W3C//DTD SVG 1.1//EN" "http://www.w3.org/Graphics/SVG/1.1/DTD/svg11.dtd">
<svg id="Untitled-Page%201" viewBox="0 0 41 43" style="background-color:#ffffff00" version="1.1"
	xmlns="http://www.w3.org/2000/svg" xmlns:xlink="http://www.w3.org/1999/xlink" xml:space="preserve"
	x="0px" y="0px" width="41px" height="43px"
>
	<g id="Layer%201">
		<g>
			<g>
				<path d="M 22.3984 16.5869 L 17.6021 16.5869 L 17.6021 11.7861 C 17.6021 11.3447 17.2422 10.9858 16.8008 10.9858 C 16.3589 10.9858 16 11.3447 16 11.7861 L 16 16.5869 L 11.1992 16.5869 C 10.7578 16.5869 10.3979 16.9468 10.3979 17.3877 C 10.3979 17.8291 10.7578 18.189 11.1992 18.189 L 16 18.189 L 16 22.9863 C 16 23.4268 16.3589 23.7861 16.8008 23.7861 C 17.2422 23.7861 17.6021 23.4268 17.6021 22.9863 L 17.6021 18.189 L 22.3984 18.189 C 22.8398 18.189 23.1992 17.8291 23.1992 17.3877 C 23.1992 16.9468 22.8398 16.5869 22.3984 16.5869 L 22.3984 16.5869 ZM 22.3984 16.5869 L 22.3984 16.5869 Z" fill="#ffffff"/>
				<path d="M 40.5781 41.6074 L 28.6914 29.2432 C 31.7227 26.2002 33.6016 22.0088 33.6016 17.3877 C 33.6016 8.1221 26.0615 0.5869 16.8008 0.5869 C 7.5352 0.5869 0 8.1221 0 17.3877 C 0 26.6504 7.5352 34.1885 16.8008 34.1885 C 20.8672 34.1885 24.5977 32.7314 27.5078 30.3223 L 39.4219 42.7158 C 39.5781 42.8799 39.7891 42.958 40 42.958 C 40.1992 42.958 40.3984 42.8838 40.5547 42.7363 C 40.8711 42.4307 40.8828 41.9229 40.5781 41.6074 L 40.5781 41.6074 ZM 1.6021 17.3877 C 1.6021 9.0049 8.418 2.189 16.8008 2.189 C 25.1797 2.189 32 9.0049 32 17.3877 C 32 25.7666 25.1797 32.5869 16.8008 32.5869 C 8.418 32.5869 1.6021 25.7666 1.6021 17.3877 L 1.6021 17.3877 ZM 1.6021 17.3877 L 1.6021 17.3877 Z" fill="#ffffff"/>
			</g>
		</g>
	</g>
</svg>