<?xml version="1.0" standalone="no"?>
<!-- Generator: Adobe Fireworks 10, Export SVG Extension by Aaron Beall (http://fireworks.abeall.com) . Version: 0.6.1  -->
<!DOCTYPE svg PUBLIC "-//W3C//DTD SVG 1.1//EN" "http://www.w3.org/Graphics/SVG/1.1/DTD/svg11.dtd">
<svg id="Untitled-Page%201" viewBox="0 0 17 16" style="background-color:#ffffff00" version="1.1"
	xmlns="http://www.w3.org/2000/svg" xmlns:xlink="http://www.w3.org/1999/xlink" xml:space="preserve"
	x="0px" y="0px" width="17px" height="16px"
>
	<g id="Layer%201">
		<path d="M 8.4551 3.4727 C 9.0615 2.0178 10.4443 1 12.0527 1 C 14.2192 1 15.7792 2.8811 15.9755 5.1223 C 15.9755 5.1223 16.0824 5.678 15.8495 6.6797 C 15.5316 8.0439 14.786 9.2563 13.7798 10.1807 L 8.4551 15 L 3.2212 10.1807 C 2.2147 9.2563 1.4692 8.0439 1.1512 6.6797 C 0.9185 5.678 1.0237 5.1223 1.0237 5.1223 C 1.2202 2.8796 2.7817 1 4.9481 1 C 6.5564 1 7.8502 2.0178 8.4551 3.4727 L 8.4551 3.4727 ZM 8.4551 3.4727 L 8.4551 3.4727 Z" stroke="#d75a4a" stroke-width="1" fill="none"/>
	</g>
</svg>