<?xml version="1.0" standalone="no"?>
<!-- Generator: Adobe Fireworks 10, Export SVG Extension by Aaron Beall (http://fireworks.abeall.com) . Version: 0.6.1  -->
<!DOCTYPE svg PUBLIC "-//W3C//DTD SVG 1.1//EN" "http://www.w3.org/Graphics/SVG/1.1/DTD/svg11.dtd">
<svg id="Untitled-Page%201" viewBox="0 0 22 20" style="background-color:#ffffff00" version="1.1"
	xmlns="http://www.w3.org/2000/svg" xmlns:xlink="http://www.w3.org/1999/xlink" xml:space="preserve"
	x="0px" y="0px" width="22px" height="20px"
>
	<g id="Layer%201">
		<g>
			<path d="M 21.9058 18.8787 L 11.6671 0.3918 C 11.5332 0.1501 11.2777 0 10.9998 0 C 10.7224 0 10.4668 0.1501 10.3328 0.3918 L 0.0942 18.8787 C -0.0354 19.1132 -0.031 19.3979 0.106 19.6282 C 0.2429 19.8586 0.4922 20 0.7615 20 L 21.2385 20 C 21.5078 20 21.7571 19.8586 21.8939 19.6282 C 22.031 19.3979 22.0355 19.1132 21.9058 18.8787 L 21.9058 18.8787 ZM 2.0498 18.4868 L 10.9998 2.3259 L 19.9502 18.4868 L 2.0498 18.4868 ZM 2.0498 18.4868 L 2.0498 18.4868 Z" fill="#bbbbbb"/>
		</g>
		<path d="M 10.0457 7.7317 L 10.0457 13.2004 C 10.0457 13.7241 10.473 14.1484 10.9998 14.1484 C 11.527 14.1484 11.9545 13.7241 11.9545 13.2004 L 11.9545 7.7317 C 11.9545 7.2083 11.527 6.7836 10.9998 6.7836 C 10.473 6.7836 10.0457 7.2083 10.0457 7.7317 L 10.0457 7.7317 ZM 10.0457 7.7317 L 10.0457 7.7317 Z" fill="#bbbbbb"/>
		<path d="M 10.9998 15.1331 C 10.4457 15.1331 9.9946 15.5808 9.9946 16.1316 C 9.9946 16.6824 10.4457 17.1304 10.9998 17.1304 C 11.5541 17.1304 12.0054 16.6824 12.0054 16.1316 C 12.0054 15.5808 11.5541 15.1331 10.9998 15.1331 L 10.9998 15.1331 ZM 10.9998 15.1331 L 10.9998 15.1331 Z" fill="#bbbbbb"/>
	</g>
</svg>